<svg xmlns="http://www.w3.org/2000/svg" viewBox="22 -2 38.75 40">
  <g transform="matrix(0.2087227003683374,0,0,0.2087227003683374,4.855281662883915,-18.4435405155662)" fill="#84d8ea">
    <path d="m243.12 88.7-1.58 29.59a.32.32 0 0 1-.58.16l-9.5-14.4a.32.32 0 0 0-.17-.13l-16.51-5.02a.32.32 0 0 1-.01-.61l27.93-9.91a.32.32 0 0 1 .42.32M233.43 119.19q.3-.06.52.18 4 4.47 7.06 8.54c25.5 33.92 22.56 79.57-7.95 109.47-32.51 31.87-85.03 31.03-117.44-1.05-17.58-17.4-26.26-43.14-23.34-67.62 2.2-18.56 11.18-36.82 25.13-49.6q27.9-25.58 65.42-22.67c11.06.86 22.68 4.2 32.47 9.67a.61.61 0 0 1 0 1.06c-5.11 2.9-9.86 5.42-15.62 5.87q-2.84.22-8.75-1.26-21.79-5.42-43.06 3.81-26.07 11.3-36.89 37.28c-10.05 24.14-4.48 52.9 12.94 71.59 22.98 24.64 59.83 29.69 88.26 11.49 31.18-19.95 40.76-59.6 22.73-91.7q-2.6-4.65-3.21-6.96-2.3-8.8 1.22-17.62.17-.41.51-.48" />
    <path d="M225.53 112.51q-.29 1-2.27 7.72-2.96 10.03-.26 20.33c1.35 5.17 5.1 11.63 7 16.47 9.64 24.65 1.13 52.17-20.04 67.92q-21.09 15.69-46.72 10.47c-34.75-7.09-55.37-42.95-43.64-76.36 8.75-24.92 32.36-39.49 58.74-38.74 5.35.15 12.7 2.1 17.7 2.13q15.97.1 28.33-10.68a.72.72 0 0 1 1.16.74m-6.21 65.79a44.24 44.24 0 0 0-44.24-44.24 44.24 44.24 0 0 0-44.24 44.24 44.24 44.24 0 0 0 44.24 44.24 44.24 44.24 0 0 0 44.24-44.24" />
  </g>
</svg>
